<svg version="1" xmlns="http://www.w3.org/2000/svg" width="682.667" height="682.667" viewBox="0 0 512.000000 512.000000"><path d="M239.9 33.5c-.2.2-3.5.6-7.3 1-3.8.3-7.2.7-7.5.9-.3.2-2.6.7-5.1 1-4.9.7-6 .9-13.5 2.6-6.5 1.4-18.5 4.9-21 6-1.1.5-4.7 1.8-8 3s-8.9 3.5-12.5 5.3c-3.6 1.7-6.7 3.1-7 3.1-2.5.5-29.8 17.2-35.6 21.9-19.3 15.4-32.8 29.2-44.6 45.2-3.2 4.4-6.5 8.9-7.4 10-.9 1.1-2.4 3.6-3.5 5.5s-3.4 6-5.1 9c-4.6 8.3-7.8 14.6-11.4 23.5-1.9 4.4-3.8 7.9-4.4 7.8-.5-.2-.7.4-.3 1.2.3.9-.2 3.5-1 5.8-.9 2.3-2.7 8.7-4.1 14.2-1.3 5.5-2.7 11.3-3.2 13-1 4.3-1.1 4.5-1.8 10-.3 2.7-1 7.5-1.4 10.5-.9 7.4-.9 39.7.2 49 1.9 17.9 8.4 43.4 15.3 60 10.6 26 28.1 52.5 47.2 71.8 6.9 7 10 9.9 20.2 18.7 7.4 6.5 28.7 19.7 42.2 26.4 19.9 9.8 41.6 16.7 62.7 20.1 4.1.6 8.6 1.4 10 1.7 4.7 1 41.5 1.1 49 .2 6.8-.9 21.5-3.2 26.5-4.3 1.1-.2 5.4-1.4 9.5-2.6 4.1-1.1 8.2-2.3 9-2.5 3-.7 17.8-6.4 24.6-9.5 3.8-1.7 6.9-3 6.9-2.9 0 .1 2.4-1.3 5.3-3s5.7-3.1 6.2-3.1c.6 0 1-.5 1-1 0-.6.5-1 1-1 .9 0 12.5-6.9 15.5-9.2.6-.4 4.4-3.3 8.5-6.4 13.6-10.3 29.1-25.6 40.7-40.4 6.6-8.5 16.9-24.5 21.7-34 2.2-4.1 4.2-8 4.5-8.5.4-.6 1.6-3.5 2.8-6.5 1.2-3 3.2-8.4 4.6-12 5.9-15.3 10.3-34.1 12.5-53.5 1-8.3.9-39.4-.1-48.5-.7-6-3.4-21.3-5.2-29-6-25.4-20.2-55.9-36.3-78-21.5-29.3-48.1-51.9-80.8-68.7-11.1-5.6-33.6-14.5-39.5-15.7-1.3-.2-6-1.3-10.4-2.4-4.4-1.1-11.4-2.5-15.5-3.2-4.1-.6-8.6-1.4-10-1.7-2.9-.6-43.6-1.4-44.1-.8z"/></svg>